<svg xmlns="http://www.w3.org/2000/svg" width="11" height="3" fill="none" viewBox="0 0 11 3"><path fill="#444" d="M.893 2.5a.404.404 0 0 1-.272-.096.404.404 0 0 1-.096-.272V.98c0-.107.032-.192.096-.256A.37.37 0 0 1 .893.612h1.152a.32.32 0 0 1 .256.112.32.32 0 0 1 .112.256v1.152a.37.37 0 0 1-.112.272.346.346 0 0 1-.256.096H.893Zm4.031 0a.404.404 0 0 1-.272-.096.404.404 0 0 1-.096-.272V.98c0-.107.032-.192.096-.256a.37.37 0 0 1 .272-.112h1.152a.32.32 0 0 1 .256.112.32.32 0 0 1 .112.256v1.152a.37.37 0 0 1-.112.272.346.346 0 0 1-.256.096H4.924Zm4.032 0a.404.404 0 0 1-.272-.096.404.404 0 0 1-.096-.272V.98c0-.107.032-.192.096-.256a.37.37 0 0 1 .272-.112h1.152a.32.32 0 0 1 .256.112.32.32 0 0 1 .112.256v1.152a.37.37 0 0 1-.112.272.346.346 0 0 1-.256.096H8.956Z"/></svg>